<svg width="256" height="256" viewBox="0 0 256 256" fill="none" xmlns="http://www.w3.org/2000/svg">
<rect x="2" y="2" width="252" height="252" rx="126" fill="#C8DEFF"/>
<rect x="2" y="2" width="252" height="252" rx="126" stroke="#E5F8F2" stroke-width="4"/>
<path d="M44.0644 109.64V96.84H47.1044V109.64C47.1044 112.52 49.0244 114.44 51.5844 114.44C54.1444 114.44 56.0644 112.52 56.0644 109.64V96.84H59.1044V109.64C59.1044 113.992 55.9364 117.16 51.5844 117.16C47.2324 117.16 44.0644 113.992 44.0644 109.64ZM61.7919 112.36H64.6719C64.8319 113.64 65.5999 114.44 67.2319 114.44C69.0239 114.44 69.7919 113.672 69.7919 112.68C69.7919 110.12 62.1119 111.848 62.1119 106.76C62.1119 104.36 64.0319 102.44 67.0719 102.44C70.4319 102.44 72.1919 104.2 72.3519 106.92H69.4719C69.3119 105.928 68.5119 105.16 67.0719 105.16C65.6319 105.16 64.8319 105.96 64.8319 106.76C64.8319 109.32 72.5119 107.592 72.5119 112.68C72.5119 115.24 70.5919 117.16 67.2319 117.16C63.6799 117.16 61.9519 115.432 61.7919 112.36ZM84.3406 112.84H87.3806C86.4526 115.24 84.5006 117.16 81.1406 117.16C77.3006 117.16 74.2606 114.12 74.2606 109.8C74.2606 105.48 77.2686 102.44 80.9806 102.44C84.6926 102.44 87.7006 105.48 87.7006 109.8C87.7006 110.152 87.6366 110.472 87.6046 110.696L87.5406 111.08H77.3006C77.4606 112.872 79.0606 114.44 81.1406 114.44C82.9006 114.44 83.8606 113.48 84.3406 112.84ZM77.3006 108.68H84.9806C84.6286 106.6 83.2526 105.16 80.9806 105.16C79.0606 105.16 77.6526 106.6 77.3006 108.68ZM90.2481 117V102.6H92.3281L92.9681 104.04C93.2241 103.752 93.5441 103.464 93.8961 103.24C94.5041 102.856 95.4001 102.44 96.6481 102.44C97.0001 102.44 97.1921 102.504 97.3521 102.536L97.6081 102.6V105.48L97.3201 105.416C97.0961 105.384 96.8721 105.32 96.6481 105.32C94.6961 105.32 93.1281 106.952 93.1281 108.84V117H90.2481ZM108.906 106.76L108.106 105.8C107.178 104.68 106.026 103.56 106.026 101.64C106.026 99.08 108.298 96.84 110.986 96.84C113.674 96.84 115.946 99.08 115.946 101.64C115.946 103.72 114.826 104.872 113.706 105.8L112.586 106.76L116.266 110.44L118.186 107.4H121.386L118.186 112.36L122.826 117H119.146L116.586 114.44C116.234 114.984 115.754 115.432 115.21 115.816C114.282 116.488 112.906 117.16 110.986 117.16C107.786 117.16 105.546 114.888 105.546 112.2C105.546 110.536 106.346 109.16 107.21 108.232C107.69 107.688 108.266 107.176 108.906 106.76ZM109.866 104.04L110.826 105L111.946 104.04C112.266 103.784 113.226 102.696 113.226 101.64C113.226 100.52 112.266 99.56 110.986 99.56C109.706 99.56 108.746 100.52 108.746 101.64C108.746 102.92 109.706 103.88 109.866 104.04ZM114.826 112.68L110.826 108.68C110.378 108.968 109.962 109.32 109.61 109.672C109.002 110.28 108.426 111.176 108.426 112.2C108.426 113.48 109.514 114.6 111.146 114.6C112.266 114.6 113.194 114.12 113.834 113.64C114.218 113.352 114.538 113.032 114.826 112.68ZM129.978 117V96.84H132.538L139.738 112.36L146.938 96.84H149.498V117H146.458V104.52L140.698 117H138.778L133.018 104.52V117H129.978ZM162.431 117L161.791 115.56C161.503 115.848 161.183 116.136 160.799 116.36C160.127 116.776 159.071 117.16 157.631 117.16C154.431 117.16 152.671 115.4 152.671 112.84C152.671 109.96 154.591 108.04 161.631 108.04V107.56C161.631 106.12 160.703 105.16 158.911 105.16C156.991 105.16 156.191 105.928 156.031 106.92H153.151C153.311 104.36 155.359 102.44 158.911 102.44C162.271 102.44 164.511 104.68 164.511 107.56V117H162.431ZM161.631 111.368V110.6C156.511 110.6 155.551 111.56 155.551 113C155.551 113.8 156.351 114.6 157.791 114.6C160.223 114.6 161.631 113.16 161.631 111.368ZM167.686 117V102.6H169.766L170.406 104.04C170.662 103.752 170.982 103.464 171.334 103.24C171.942 102.856 172.838 102.44 174.086 102.44C174.438 102.44 174.63 102.504 174.79 102.536L175.046 102.6V105.48L174.758 105.416C174.534 105.384 174.31 105.32 174.086 105.32C172.134 105.32 170.566 106.952 170.566 108.84V117H167.686ZM177.252 117V96.84H180.132V108.84L185.092 102.6H188.452L182.852 109.32L189.252 117H185.732L180.132 110.12V117H177.252ZM199.309 112.84H202.349C201.421 115.24 199.469 117.16 196.109 117.16C192.269 117.16 189.229 114.12 189.229 109.8C189.229 105.48 192.237 102.44 195.949 102.44C199.661 102.44 202.669 105.48 202.669 109.8C202.669 110.152 202.605 110.472 202.573 110.696L202.509 111.08H192.269C192.429 112.872 194.029 114.44 196.109 114.44C197.869 114.44 198.829 113.48 199.309 112.84ZM192.269 108.68H199.949C199.597 106.6 198.221 105.16 195.949 105.16C194.029 105.16 192.621 106.6 192.269 108.68ZM206.497 112.2V105.32H203.937V102.6H205.057C206.177 102.6 206.977 101.8 206.977 100.68V98.76H209.377V102.6H212.577V105.32H209.377V112.2C209.377 113.48 210.337 114.44 211.617 114.44C211.841 114.44 212.065 114.408 212.289 114.376L212.577 114.28V116.84C212.449 116.904 212.289 116.968 212.129 117C211.809 117.096 211.425 117.16 210.977 117.16C208.417 117.16 206.497 115.24 206.497 112.2ZM90.5556 157L89.9156 155.56C89.6276 155.848 89.3076 156.136 88.9236 156.36C88.2516 156.776 87.1956 157.16 85.7556 157.16C82.5556 157.16 80.7956 155.4 80.7956 152.84C80.7956 149.96 82.7156 148.04 89.7556 148.04V147.56C89.7556 146.12 88.8276 145.16 87.0356 145.16C85.1156 145.16 84.3156 145.928 84.1556 146.92H81.2756C81.4356 144.36 83.4836 142.44 87.0356 142.44C90.3956 142.44 92.6356 144.68 92.6356 147.56V157H90.5556ZM89.7556 151.368V150.6C84.6356 150.6 83.6756 151.56 83.6756 153C83.6756 153.8 84.4756 154.6 85.9156 154.6C88.3476 154.6 89.7556 153.16 89.7556 151.368ZM95.8106 157V142.6H97.8906L98.5306 144.04C98.8186 143.752 99.1386 143.464 99.5226 143.24C100.195 142.856 101.251 142.44 102.691 142.44C105.891 142.44 108.451 145 108.451 148.68V157H105.571V148.68C105.571 146.792 104.003 145.16 102.211 145.16C100.259 145.16 98.6906 146.792 98.6906 148.68V157H95.8106ZM120.743 157L120.103 155.56C119.815 155.848 119.495 156.136 119.111 156.36C118.439 156.776 117.383 157.16 115.943 157.16C112.743 157.16 110.983 155.4 110.983 152.84C110.983 149.96 112.903 148.04 119.943 148.04V147.56C119.943 146.12 119.015 145.16 117.223 145.16C115.303 145.16 114.503 145.928 114.343 146.92H111.463C111.623 144.36 113.671 142.44 117.223 142.44C120.583 142.44 122.823 144.68 122.823 147.56V157H120.743ZM119.943 151.368V150.6C114.823 150.6 113.863 151.56 113.863 153C113.863 153.8 114.663 154.6 116.103 154.6C118.535 154.6 119.943 153.16 119.943 151.368ZM126.158 157V136.84H129.038V157H126.158ZM133.329 162.12V159.72C134.961 159.72 135.697 158.952 136.049 157.96L136.529 156.52L130.929 142.6H133.969L137.969 153L141.969 142.6H145.009L138.929 157.96C137.649 161.16 136.529 162.28 134.289 162.28C134.033 162.28 133.841 162.248 133.617 162.216L133.329 162.12ZM145.948 152.36H148.828C148.988 153.64 149.756 154.44 151.388 154.44C153.18 154.44 153.948 153.672 153.948 152.68C153.948 150.12 146.268 151.848 146.268 146.76C146.268 144.36 148.188 142.44 151.228 142.44C154.588 142.44 156.348 144.2 156.508 146.92H153.628C153.468 145.928 152.668 145.16 151.228 145.16C149.788 145.16 148.988 145.96 148.988 146.76C148.988 149.32 156.668 147.592 156.668 152.68C156.668 155.24 154.748 157.16 151.388 157.16C147.836 157.16 146.108 155.432 145.948 152.36ZM159.217 157V142.6H162.097V157H159.217ZM160.657 136.84C161.649 136.84 162.417 137.608 162.417 138.6C162.417 139.592 161.649 140.36 160.657 140.36C159.665 140.36 158.897 139.592 158.897 138.6C158.897 137.608 159.665 136.84 160.657 136.84ZM164.636 152.36H167.516C167.676 153.64 168.444 154.44 170.076 154.44C171.868 154.44 172.636 153.672 172.636 152.68C172.636 150.12 164.956 151.848 164.956 146.76C164.956 144.36 166.876 142.44 169.916 142.44C173.276 142.44 175.036 144.2 175.196 146.92H172.316C172.156 145.928 171.356 145.16 169.916 145.16C168.476 145.16 167.676 145.96 167.676 146.76C167.676 149.32 175.356 147.592 175.356 152.68C175.356 155.24 173.436 157.16 170.076 157.16C166.524 157.16 164.796 155.432 164.636 152.36Z" fill="#1B2533"/>
</svg>
