<svg width="256" height="256" viewBox="0 0 256 256" fill="none" xmlns="http://www.w3.org/2000/svg">
<rect x="2" y="2" width="252" height="252" rx="126" fill="#A1D6D6"/>
<rect x="2" y="2" width="252" height="252" rx="126" stroke="#E5F8F2" stroke-width="4"/>
<path d="M72.2594 117V96.84H85.0594V99.72H75.2994V105.48H83.2994V108.36H75.2994V117H72.2594ZM87.4356 117V102.6H90.3156V117H87.4356ZM88.8756 96.84C89.8676 96.84 90.6356 97.608 90.6356 98.6C90.6356 99.592 89.8676 100.36 88.8756 100.36C87.8836 100.36 87.1156 99.592 87.1156 98.6C87.1156 97.608 87.8836 96.84 88.8756 96.84ZM93.6544 117V102.6H95.7344L96.3744 104.04C96.6624 103.752 96.9824 103.464 97.3664 103.24C98.0384 102.856 99.0944 102.44 100.534 102.44C103.734 102.44 106.294 105 106.294 108.68V117H103.414V108.68C103.414 106.792 101.846 105.16 100.054 105.16C98.1024 105.16 96.5344 106.792 96.5344 108.68V117H93.6544ZM118.587 117L117.947 115.56C117.659 115.848 117.339 116.136 116.955 116.36C116.283 116.776 115.227 117.16 113.787 117.16C110.587 117.16 108.827 115.4 108.827 112.84C108.827 109.96 110.747 108.04 117.787 108.04V107.56C117.787 106.12 116.859 105.16 115.067 105.16C113.147 105.16 112.347 105.928 112.187 106.92H109.307C109.467 104.36 111.515 102.44 115.067 102.44C118.427 102.44 120.667 104.68 120.667 107.56V117H118.587ZM117.787 111.368V110.6C112.667 110.6 111.707 111.56 111.707 113C111.707 113.8 112.507 114.6 113.947 114.6C116.379 114.6 117.787 113.16 117.787 111.368ZM124.002 117V96.84H126.882V117H124.002ZM130.373 117V102.6H133.253V117H130.373ZM131.813 96.84C132.805 96.84 133.573 97.608 133.573 98.6C133.573 99.592 132.805 100.36 131.813 100.36C130.821 100.36 130.053 99.592 130.053 98.6C130.053 97.608 130.821 96.84 131.813 96.84ZM135.792 112.36H138.672C138.832 113.64 139.6 114.44 141.232 114.44C143.024 114.44 143.792 113.672 143.792 112.68C143.792 110.12 136.112 111.848 136.112 106.76C136.112 104.36 138.032 102.44 141.072 102.44C144.432 102.44 146.192 104.2 146.352 106.92H143.472C143.312 105.928 142.512 105.16 141.072 105.16C139.632 105.16 138.832 105.96 138.832 106.76C138.832 109.32 146.512 107.592 146.512 112.68C146.512 115.24 144.592 117.16 141.232 117.16C137.68 117.16 135.952 115.432 135.792 112.36ZM158.341 112.84H161.381C160.453 115.24 158.501 117.16 155.141 117.16C151.301 117.16 148.261 114.12 148.261 109.8C148.261 105.48 151.269 102.44 154.981 102.44C158.693 102.44 161.701 105.48 161.701 109.8C161.701 110.152 161.637 110.472 161.605 110.696L161.541 111.08H151.301C151.461 112.872 153.061 114.44 155.141 114.44C156.901 114.44 157.861 113.48 158.341 112.84ZM151.301 108.68H158.981C158.629 106.6 157.253 105.16 154.981 105.16C153.061 105.16 151.653 106.6 151.301 108.68ZM173.499 106.76L172.699 105.8C171.771 104.68 170.619 103.56 170.619 101.64C170.619 99.08 172.891 96.84 175.579 96.84C178.267 96.84 180.539 99.08 180.539 101.64C180.539 103.72 179.419 104.872 178.299 105.8L177.179 106.76L180.859 110.44L182.779 107.4H185.979L182.779 112.36L187.419 117H183.739L181.179 114.44C180.827 114.984 180.347 115.432 179.803 115.816C178.875 116.488 177.499 117.16 175.579 117.16C172.379 117.16 170.139 114.888 170.139 112.2C170.139 110.536 170.939 109.16 171.803 108.232C172.283 107.688 172.859 107.176 173.499 106.76ZM174.459 104.04L175.419 105L176.539 104.04C176.859 103.784 177.819 102.696 177.819 101.64C177.819 100.52 176.859 99.56 175.579 99.56C174.299 99.56 173.339 100.52 173.339 101.64C173.339 102.92 174.299 103.88 174.459 104.04ZM179.419 112.68L175.419 108.68C174.971 108.968 174.555 109.32 174.203 109.672C173.595 110.28 173.019 111.176 173.019 112.2C173.019 113.48 174.107 114.6 175.739 114.6C176.859 114.6 177.787 114.12 178.427 113.64C178.811 113.352 179.131 113.032 179.419 112.68ZM84.2125 157V136.84H87.2525V154.12H96.8525V157H84.2125ZM107.728 157L107.088 155.56C106.8 155.848 106.48 156.136 106.095 156.36C105.424 156.776 104.368 157.16 102.928 157.16C99.7275 157.16 97.9675 155.4 97.9675 152.84C97.9675 149.96 99.8875 148.04 106.928 148.04V147.56C106.928 146.12 106 145.16 104.208 145.16C102.288 145.16 101.488 145.928 101.328 146.92H98.4475C98.6075 144.36 100.656 142.44 104.208 142.44C107.568 142.44 109.808 144.68 109.808 147.56V157H107.728ZM106.928 151.368V150.6C101.808 150.6 100.848 151.56 100.848 153C100.848 153.8 101.648 154.6 103.088 154.6C105.52 154.6 106.928 153.16 106.928 151.368ZM112.983 150.92V142.6H115.863V150.92C115.863 152.872 117.431 154.44 119.223 154.44C121.111 154.44 122.743 152.872 122.743 150.92V142.6H125.623V157H123.543L122.903 155.56C122.615 155.848 122.295 156.136 121.911 156.36C121.239 156.776 120.183 157.16 118.743 157.16C115.543 157.16 112.983 154.6 112.983 150.92ZM128.951 157V142.6H131.031L131.671 144.04C131.959 143.752 132.279 143.464 132.663 143.24C133.335 142.856 134.391 142.44 135.831 142.44C139.031 142.44 141.591 145 141.591 148.68V157H138.711V148.68C138.711 146.792 137.143 145.16 135.351 145.16C133.399 145.16 131.831 146.792 131.831 148.68V157H128.951ZM154.204 151.72H157.244C156.572 154.792 154.236 157.16 150.844 157.16C147.004 157.16 143.964 154.12 143.964 149.8C143.964 145.48 147.004 142.44 150.844 142.44C154.236 142.44 156.572 144.808 157.244 147.88H154.204C153.724 146.248 152.636 145.16 150.844 145.16C148.764 145.16 146.844 147.08 146.844 149.8C146.844 152.52 148.764 154.44 150.844 154.44C152.636 154.44 153.724 153.352 154.204 151.72ZM159.799 157V136.84H162.679V144.04C162.967 143.752 163.319 143.464 163.703 143.24C164.375 142.856 165.399 142.44 166.679 142.44C169.879 142.44 172.439 145 172.439 148.68V157H169.559V148.68C169.559 146.792 167.991 145.16 166.199 145.16C164.247 145.16 162.679 146.792 162.679 148.68V157H159.799Z" fill="#1B2533"/>
</svg>