<svg width="248" height="248" viewBox="0 0 248 248" fill="none" xmlns="http://www.w3.org/2000/svg">
<rect width="248" height="248" rx="124" fill="#E5F8F2"/>
<path d="M124.02 9.5C61.2976 9.5 10.5 60.7863 10.5 124.016C10.5 187.245 58.9126 236.081 119.604 238.446C119.999 238.446 120.402 238.486 120.837 238.486V158.728C120.837 131.188 102.811 106.239 76.3114 99.605C74.8096 99.2522 73.3077 98.8995 71.7656 98.6282C98.4488 94.0019 119.38 72.8742 124.025 45.9128C128.611 72.8697 149.556 93.9839 176.239 98.6282C174.822 98.895 173.406 99.1663 172.043 99.5191C145.319 106.072 127.163 131.288 127.163 159.095V238.5C127.611 238.5 128.006 238.459 128.44 238.459C189.087 236.094 237.5 185.789 237.5 124.029C237.5 62.2696 186.702 9.5 124.02 9.5ZM78.0598 189.434C84.3585 188.331 89.2988 183.347 90.3927 176.993C91.4866 183.347 96.4269 188.331 102.726 189.434C96.4269 190.537 91.4866 195.521 90.3927 201.875C89.2988 195.521 84.3585 190.537 78.0598 189.434ZM185.393 148.155C176.696 149.67 169.877 156.549 168.376 165.322C166.874 156.549 160.055 149.67 151.358 148.155C160.055 146.64 166.874 139.762 168.376 130.989C169.877 139.762 176.696 146.64 185.393 148.155Z" fill="#CBA26C"/>
</svg>
