<svg width="327" height="89" viewBox="0 0 327 89" fill="none" xmlns="http://www.w3.org/2000/svg">
<rect x="2.55273" y="2.0762" width="322" height="84" rx="42" fill="#FFB9B9"/>
<rect x="2.55273" y="2.0762" width="322" height="84" rx="42" stroke="#E5F8F2" stroke-width="4"/>
<path d="M55.3902 53.0762V32.9162H62.7502C66.2382 32.9162 69.1502 35.8282 69.1502 39.3162C69.1502 42.8042 66.2382 45.7162 62.7502 45.7162H58.4302V53.0762H55.3902ZM58.4302 42.8362H62.7502C64.5422 42.8362 66.1102 41.2682 66.1102 39.3162C66.1102 37.4282 64.5422 35.7962 62.7502 35.7962H58.4302V42.8362ZM71.6915 53.0762V38.6762H73.7715L74.4115 40.1162C74.6675 39.8282 74.9875 39.5402 75.3395 39.3162C75.9475 38.9322 76.8435 38.5162 78.0915 38.5162C78.4435 38.5162 78.6355 38.5802 78.7955 38.6122L79.0515 38.6762V41.5562L78.7635 41.4922C78.5395 41.4602 78.3155 41.3962 78.0915 41.3962C76.1395 41.3962 74.5715 43.0282 74.5715 44.9162V53.0762H71.6915ZM87.1777 50.5162C89.2577 50.5162 91.1777 48.5962 91.1777 45.8762C91.1777 43.1562 89.2577 41.2362 87.1777 41.2362C85.0977 41.2362 83.1777 43.1562 83.1777 45.8762C83.1777 48.5962 85.0977 50.5162 87.1777 50.5162ZM87.1777 53.2362C83.3377 53.2362 80.2977 50.1962 80.2977 45.8762C80.2977 41.5562 83.3377 38.5162 87.1777 38.5162C91.0177 38.5162 94.0577 41.5562 94.0577 45.8762C94.0577 50.1962 91.0177 53.2362 87.1777 53.2362ZM107.478 53.0762L106.838 51.6362C106.55 51.9242 106.23 52.2122 105.846 52.4362C105.174 52.8522 104.118 53.2362 102.678 53.2362C98.8377 53.2362 95.7977 50.1962 95.7977 45.8762C95.7977 41.5562 98.8377 38.5162 102.678 38.5162C104.054 38.5162 105.014 38.9322 105.686 39.3162C106.07 39.5402 106.39 39.8282 106.678 40.1162V32.9162H109.558V53.0762H107.478ZM102.838 50.5162C105.046 50.5162 106.998 48.5962 106.998 45.8762C106.998 43.1562 105.046 41.2362 102.838 41.2362C100.63 41.2362 98.6777 43.1562 98.6777 45.8762C98.6777 48.5962 100.63 50.5162 102.838 50.5162ZM113.066 46.9962V38.6762H115.946V46.9962C115.946 48.9482 117.514 50.5162 119.306 50.5162C121.194 50.5162 122.826 48.9482 122.826 46.9962V38.6762H125.706V53.0762H123.626L122.986 51.6362C122.698 51.9242 122.378 52.2122 121.994 52.4362C121.322 52.8522 120.266 53.2362 118.826 53.2362C115.626 53.2362 113.066 50.6762 113.066 46.9962ZM138.475 47.7962H141.515C140.843 50.8682 138.507 53.2362 135.115 53.2362C131.275 53.2362 128.235 50.1962 128.235 45.8762C128.235 41.5562 131.275 38.5162 135.115 38.5162C138.507 38.5162 140.843 40.8842 141.515 43.9562H138.475C137.995 42.3242 136.907 41.2362 135.115 41.2362C133.035 41.2362 131.115 43.1562 131.115 45.8762C131.115 48.5962 133.035 50.5162 135.115 50.5162C136.907 50.5162 137.995 49.4282 138.475 47.7962ZM145.19 48.2762V41.3962H142.63V38.6762H143.75C144.87 38.6762 145.67 37.8762 145.67 36.7562V34.8362H148.07V38.6762H151.27V41.3962L148.07 41.3962V48.2762C148.07 49.5562 149.03 50.5162 150.31 50.5162C150.534 50.5162 150.758 50.4842 150.982 50.4522L151.27 50.3562V52.9162C151.142 52.9802 150.982 53.0442 150.822 53.0762C150.502 53.1722 150.118 53.2362 149.67 53.2362C147.11 53.2362 145.19 51.3162 145.19 48.2762ZM161.14 53.0762V32.9162H169.14C172.5 32.9162 175.22 35.6362 175.22 38.9962C175.22 41.3322 174.1 42.7402 172.98 43.6042C172.308 44.1162 171.572 44.5002 170.74 44.7562L175.7 53.0762H172.34L167.7 45.0762H164.18V53.0762H161.14ZM164.18 42.1962H169.14C170.74 42.1962 172.18 40.7562 172.18 38.9962C172.18 37.2362 170.74 35.7962 169.14 35.7962H164.18V42.1962ZM187.346 48.9162H190.386C189.458 51.3162 187.506 53.2362 184.146 53.2362C180.306 53.2362 177.266 50.1962 177.266 45.8762C177.266 41.5562 180.274 38.5162 183.986 38.5162C187.698 38.5162 190.706 41.5562 190.706 45.8762C190.706 46.2282 190.642 46.5482 190.61 46.7722L190.546 47.1562H180.306C180.466 48.9482 182.066 50.5162 184.146 50.5162C185.906 50.5162 186.866 49.5562 187.346 48.9162ZM180.306 44.7562H187.986C187.634 42.6762 186.258 41.2362 183.986 41.2362C182.066 41.2362 180.658 42.6762 180.306 44.7562ZM192.454 48.4362H195.334C195.494 49.7162 196.262 50.5162 197.894 50.5162C199.686 50.5162 200.454 49.7482 200.454 48.7562C200.454 46.1962 192.774 47.9242 192.774 42.8362C192.774 40.4362 194.694 38.5162 197.734 38.5162C201.094 38.5162 202.854 40.2762 203.014 42.9962H200.134C199.974 42.0042 199.174 41.2362 197.734 41.2362C196.294 41.2362 195.494 42.0362 195.494 42.8362C195.494 45.3962 203.174 43.6682 203.174 48.7562C203.174 51.3162 201.254 53.2362 197.894 53.2362C194.342 53.2362 192.614 51.5082 192.454 48.4362ZM215.003 48.9162H218.043C217.115 51.3162 215.163 53.2362 211.803 53.2362C207.963 53.2362 204.923 50.1962 204.923 45.8762C204.923 41.5562 207.931 38.5162 211.643 38.5162C215.355 38.5162 218.363 41.5562 218.363 45.8762C218.363 46.2282 218.299 46.5482 218.267 46.7722L218.203 47.1562L207.963 47.1562C208.123 48.9482 209.723 50.5162 211.803 50.5162C213.563 50.5162 214.523 49.5562 215.003 48.9162ZM207.963 44.7562L215.643 44.7562C215.291 42.6762 213.915 41.2362 211.643 41.2362C209.723 41.2362 208.315 42.6762 207.963 44.7562ZM230.03 53.0762L229.39 51.6362C229.102 51.9242 228.782 52.2122 228.398 52.4362C227.726 52.8522 226.67 53.2362 225.23 53.2362C222.03 53.2362 220.27 51.4762 220.27 48.9162C220.27 46.0362 222.19 44.1162 229.23 44.1162V43.6362C229.23 42.1962 228.302 41.2362 226.51 41.2362C224.59 41.2362 223.79 42.0042 223.63 42.9962H220.75C220.91 40.4362 222.958 38.5162 226.51 38.5162C229.87 38.5162 232.11 40.7562 232.11 43.6362V53.0762H230.03ZM229.23 47.4442V46.6762C224.11 46.6762 223.15 47.6362 223.15 49.0762C223.15 49.8762 223.95 50.6762 225.39 50.6762C227.822 50.6762 229.23 49.2362 229.23 47.4442ZM235.285 53.0762V38.6762H237.365L238.005 40.1162C238.261 39.8282 238.581 39.5402 238.933 39.3162C239.541 38.9322 240.437 38.5162 241.685 38.5162C242.037 38.5162 242.229 38.5802 242.389 38.6122L242.645 38.6762V41.5562L242.357 41.4922C242.133 41.4602 241.909 41.3962 241.685 41.3962C239.733 41.3962 238.165 43.0282 238.165 44.9162V53.0762H235.285ZM254.131 47.7962H257.171C256.499 50.8682 254.163 53.2362 250.771 53.2362C246.931 53.2362 243.891 50.1962 243.891 45.8762C243.891 41.5562 246.931 38.5162 250.771 38.5162C254.163 38.5162 256.499 40.8842 257.171 43.9562H254.131C253.651 42.3242 252.563 41.2362 250.771 41.2362C248.691 41.2362 246.771 43.1562 246.771 45.8762C246.771 48.5962 248.691 50.5162 250.771 50.5162C252.563 50.5162 253.651 49.4282 254.131 47.7962ZM259.726 53.0762V32.9162H262.606V40.1162C262.894 39.8282 263.246 39.5402 263.63 39.3162C264.302 38.9322 265.326 38.5162 266.606 38.5162C269.806 38.5162 272.366 41.0762 272.366 44.7562V53.0762H269.486V44.7562C269.486 42.8682 267.918 41.2362 266.126 41.2362C264.174 41.2362 262.606 42.8682 262.606 44.7562V53.0762H259.726Z" fill="#1B2533"/>
</svg>
