<svg width="361" height="88" viewBox="0 0 361 88" fill="none" xmlns="http://www.w3.org/2000/svg">
<rect x="2" y="2" width="357" height="84" rx="42" fill="#FFD4B5"/>
<rect x="2" y="2" width="357" height="84" rx="42" stroke="#E5F8F2" stroke-width="4"/>
<path d="M57.5963 50.12H60.6363C63.9643 50.12 67.1963 47.08 67.1963 42.92C67.1963 38.76 63.9643 35.72 60.6363 35.72H57.5963V50.12ZM54.5563 53V32.84H60.6363C65.7563 32.84 70.2363 37.32 70.2363 42.92C70.2363 48.52 65.7563 53 60.6363 53H54.5563ZM82.0438 48.84H85.0838C84.1558 51.24 82.2038 53.16 78.8438 53.16C75.0038 53.16 71.9638 50.12 71.9638 45.8C71.9638 41.48 74.9718 38.44 78.6838 38.44C82.3958 38.44 85.4038 41.48 85.4038 45.8C85.4038 46.152 85.3398 46.472 85.3078 46.696L85.2438 47.08H75.0038C75.1638 48.872 76.7638 50.44 78.8438 50.44C80.6038 50.44 81.5638 49.48 82.0438 48.84ZM75.0038 44.68H82.6838C82.3318 42.6 80.9558 41.16 78.6838 41.16C76.7638 41.16 75.3558 42.6 75.0038 44.68ZM88.4313 53V41.32H86.6713V38.6H88.4313V37.64C88.4313 34.6 90.3513 32.68 92.9113 32.68C93.3913 32.68 93.7753 32.744 94.0633 32.84L94.5113 33V35.56L94.2233 35.496C93.9993 35.464 93.7753 35.4 93.5513 35.4C92.2713 35.4 91.3113 36.36 91.3113 37.64V38.6H94.5113V41.32H91.3113V53H88.4313ZM96.5763 53V38.6H99.4563V53H96.5763ZM98.0163 32.84C99.0083 32.84 99.7763 33.608 99.7763 34.6C99.7763 35.592 99.0083 36.36 98.0163 36.36C97.0243 36.36 96.2563 35.592 96.2563 34.6C96.2563 33.608 97.0243 32.84 98.0163 32.84ZM102.795 53V38.6H104.875L105.515 40.04C105.803 39.752 106.123 39.464 106.507 39.24C107.179 38.856 108.235 38.44 109.675 38.44C112.875 38.44 115.435 41 115.435 44.68V53H112.555V44.68C112.555 42.792 110.987 41.16 109.195 41.16C107.243 41.16 105.675 42.792 105.675 44.68V53H102.795ZM118.608 53V38.6H121.488V53H118.608ZM120.048 32.84C121.04 32.84 121.808 33.608 121.808 34.6C121.808 35.592 121.04 36.36 120.048 36.36C119.056 36.36 118.288 35.592 118.288 34.6C118.288 33.608 119.056 32.84 120.048 32.84ZM124.826 53V38.6H126.906L127.546 40.04C127.834 39.752 128.154 39.464 128.538 39.24C129.21 38.856 130.266 38.44 131.706 38.44C134.906 38.44 137.466 41 137.466 44.68V53H134.586V44.68C134.586 42.792 133.018 41.16 131.226 41.16C129.274 41.16 127.706 42.792 127.706 44.68V53H124.826ZM140.479 53.96H143.359C143.839 54.952 144.799 55.88 146.719 55.88C148.991 55.88 150.399 54.44 150.399 52.36V50.92C150.111 51.208 149.791 51.496 149.407 51.72C148.735 52.136 147.775 52.52 146.399 52.52C142.879 52.52 139.839 49.448 139.839 45.48C139.839 41.512 142.879 38.44 146.399 38.44C147.839 38.44 148.895 38.856 149.567 39.24C149.951 39.464 150.271 39.752 150.559 40.04L151.199 38.6H153.279V52.36C153.279 55.88 150.719 58.44 146.719 58.44C143.231 58.44 141.087 56.36 140.479 53.96ZM146.751 49.8C148.799 49.8 150.719 47.88 150.719 45.48C150.719 43.08 148.799 41.16 146.719 41.16C144.639 41.16 142.719 43.08 142.719 45.48C142.719 47.88 144.639 49.8 146.751 49.8ZM164.419 48.2V41.32H161.859V38.6H162.979C164.099 38.6 164.899 37.8 164.899 36.68V34.76H167.299V38.6H170.499V41.32H167.299V48.2C167.299 49.48 168.259 50.44 169.539 50.44C169.763 50.44 169.987 50.408 170.211 50.376L170.499 50.28V52.84C170.371 52.904 170.211 52.968 170.051 53C169.731 53.096 169.347 53.16 168.899 53.16C166.339 53.16 164.419 51.24 164.419 48.2ZM173.518 53V32.84H176.398V40.04C176.686 39.752 177.038 39.464 177.422 39.24C178.094 38.856 179.118 38.44 180.398 38.44C183.598 38.44 186.158 41 186.158 44.68V53H183.278V44.68C183.278 42.792 181.71 41.16 179.918 41.16C177.966 41.16 176.398 42.792 176.398 44.68V53H173.518ZM198.606 48.84H201.646C200.718 51.24 198.766 53.16 195.406 53.16C191.566 53.16 188.526 50.12 188.526 45.8C188.526 41.48 191.534 38.44 195.246 38.44C198.958 38.44 201.966 41.48 201.966 45.8C201.966 46.152 201.902 46.472 201.87 46.696L201.806 47.08H191.566C191.726 48.872 193.326 50.44 195.406 50.44C197.166 50.44 198.126 49.48 198.606 48.84ZM191.566 44.68H199.246C198.894 42.6 197.518 41.16 195.246 41.16C193.326 41.16 191.918 42.6 191.566 44.68ZM211.525 53V32.84H218.885C222.373 32.84 225.285 35.752 225.285 39.24C225.285 42.728 222.373 45.64 218.885 45.64H214.565V53H211.525ZM214.565 42.76H218.885C220.677 42.76 222.245 41.192 222.245 39.24C222.245 37.352 220.677 35.72 218.885 35.72H214.565V42.76ZM227.826 53V38.6H229.906L230.546 40.04C230.802 39.752 231.122 39.464 231.474 39.24C232.082 38.856 232.978 38.44 234.226 38.44C234.578 38.44 234.77 38.504 234.93 38.536L235.186 38.6V41.48L234.898 41.416C234.674 41.384 234.45 41.32 234.226 41.32C232.274 41.32 230.706 42.952 230.706 44.84V53H227.826ZM243.313 50.44C245.393 50.44 247.313 48.52 247.313 45.8C247.313 43.08 245.393 41.16 243.313 41.16C241.233 41.16 239.313 43.08 239.313 45.8C239.313 48.52 241.233 50.44 243.313 50.44ZM243.313 53.16C239.473 53.16 236.433 50.12 236.433 45.8C236.433 41.48 239.473 38.44 243.313 38.44C247.153 38.44 250.193 41.48 250.193 45.8C250.193 50.12 247.153 53.16 243.313 53.16ZM263.613 53L262.973 51.56C262.685 51.848 262.365 52.136 261.981 52.36C261.309 52.776 260.253 53.16 258.813 53.16C254.973 53.16 251.933 50.12 251.933 45.8C251.933 41.48 254.973 38.44 258.813 38.44C260.189 38.44 261.149 38.856 261.821 39.24C262.205 39.464 262.525 39.752 262.813 40.04V32.84H265.693V53H263.613ZM258.973 50.44C261.181 50.44 263.133 48.52 263.133 45.8C263.133 43.08 261.181 41.16 258.973 41.16C256.765 41.16 254.813 43.08 254.813 45.8C254.813 48.52 256.765 50.44 258.973 50.44ZM269.201 46.92V38.6H272.081V46.92C272.081 48.872 273.649 50.44 275.441 50.44C277.329 50.44 278.961 48.872 278.961 46.92V38.6H281.841V53H279.761L279.121 51.56C278.833 51.848 278.513 52.136 278.129 52.36C277.457 52.776 276.401 53.16 274.961 53.16C271.761 53.16 269.201 50.6 269.201 46.92ZM294.61 47.72H297.65C296.978 50.792 294.642 53.16 291.25 53.16C287.41 53.16 284.37 50.12 284.37 45.8C284.37 41.48 287.41 38.44 291.25 38.44C294.642 38.44 296.978 40.808 297.65 43.88H294.61C294.13 42.248 293.042 41.16 291.25 41.16C289.17 41.16 287.25 43.08 287.25 45.8C287.25 48.52 289.17 50.44 291.25 50.44C293.042 50.44 294.13 49.352 294.61 47.72ZM301.325 48.2V41.32H298.765V38.6H299.885C301.005 38.6 301.805 37.8 301.805 36.68V34.76H304.205V38.6H307.405V41.32H304.205V48.2C304.205 49.48 305.165 50.44 306.445 50.44C306.669 50.44 306.893 50.408 307.117 50.376L307.405 50.28V52.84C307.277 52.904 307.117 52.968 306.957 53C306.637 53.096 306.253 53.16 305.805 53.16C303.245 53.16 301.325 51.24 301.325 48.2Z" fill="#1B2533"/>
</svg>
