<svg width="348" height="89" viewBox="0 0 348 89" fill="none" xmlns="http://www.w3.org/2000/svg">
<rect x="2.62988" y="2.52924" width="343" height="84" rx="42" fill="#FFF493"/>
<rect x="2.62988" y="2.52924" width="343" height="84" rx="42" stroke="#E5F8F2" stroke-width="4"/>
<path d="M59.6118 53.5292V36.2492H53.5318V33.3692H68.7318V36.2492H62.6518V53.5292H59.6118ZM78.0018 49.3692H81.0418C80.1138 51.7692 78.1618 53.6892 74.8018 53.6892C70.9618 53.6892 67.9218 50.6492 67.9218 46.3292C67.9218 42.0092 70.9298 38.9692 74.6418 38.9692C78.3538 38.9692 81.3618 42.0092 81.3618 46.3292C81.3618 46.6812 81.2978 47.0012 81.2658 47.2252L81.2018 47.6092H70.9618C71.1218 49.4012 72.7218 50.9692 74.8018 50.9692C76.5618 50.9692 77.5218 50.0092 78.0018 49.3692ZM70.9618 45.2092H78.6418C78.2898 43.1292 76.9138 41.6892 74.6418 41.6892C72.7218 41.6892 71.3138 43.1292 70.9618 45.2092ZM83.1093 48.8892H85.9893C86.1493 50.1692 86.9173 50.9692 88.5493 50.9692C90.3413 50.9692 91.1093 50.2012 91.1093 49.2092C91.1093 46.6492 83.4293 48.3772 83.4293 43.2892C83.4293 40.8892 85.3493 38.9692 88.3893 38.9692C91.7493 38.9692 93.5093 40.7292 93.6693 43.4492H90.7893C90.6293 42.4572 89.8293 41.6892 88.3893 41.6892C86.9493 41.6892 86.1493 42.4892 86.1493 43.2892C86.1493 45.8492 93.8293 44.1212 93.8293 49.2092C93.8293 51.7692 91.9093 53.6892 88.5493 53.6892C84.9973 53.6892 83.2693 51.9612 83.1093 48.8892ZM97.658 48.7292V41.8492H95.098V39.1292H96.218C97.338 39.1292 98.138 38.3292 98.138 37.2092V35.2892H100.538V39.1292H103.738V41.8492H100.538V48.7292C100.538 50.0092 101.498 50.9692 102.778 50.9692C103.002 50.9692 103.226 50.9372 103.45 50.9052L103.738 50.8092V53.3692C103.61 53.4332 103.45 53.4972 103.29 53.5292C102.97 53.6252 102.586 53.6892 102.138 53.6892C99.578 53.6892 97.658 51.7692 97.658 48.7292ZM106.597 53.5292V39.1292H109.477V53.5292H106.597ZM108.037 33.3692C109.029 33.3692 109.797 34.1372 109.797 35.1292C109.797 36.1212 109.029 36.8892 108.037 36.8892C107.045 36.8892 106.277 36.1212 106.277 35.1292C106.277 34.1372 107.045 33.3692 108.037 33.3692ZM112.816 53.5292V39.1292H114.896L115.536 40.5692C115.824 40.2812 116.144 39.9932 116.528 39.7692C117.2 39.3852 118.256 38.9692 119.696 38.9692C122.896 38.9692 125.456 41.5292 125.456 45.2092V53.5292H122.576V45.2092C122.576 43.3212 121.008 41.6892 119.216 41.6892C117.264 41.6892 115.696 43.3212 115.696 45.2092V53.5292H112.816ZM128.468 54.4892H131.348C131.828 55.4812 132.788 56.4092 134.708 56.4092C136.98 56.4092 138.388 54.9692 138.388 52.8892V51.4492C138.1 51.7372 137.78 52.0252 137.396 52.2492C136.724 52.6652 135.764 53.0492 134.388 53.0492C130.868 53.0492 127.828 49.9772 127.828 46.0092C127.828 42.0412 130.868 38.9692 134.388 38.9692C135.828 38.9692 136.884 39.3852 137.556 39.7692C137.94 39.9932 138.26 40.2812 138.548 40.5692L139.188 39.1292H141.268V52.8892C141.268 56.4092 138.708 58.9692 134.708 58.9692C131.22 58.9692 129.076 56.8892 128.468 54.4892ZM134.74 50.3292C136.788 50.3292 138.708 48.4092 138.708 46.0092C138.708 43.6092 136.788 41.6892 134.708 41.6892C132.628 41.6892 130.708 43.6092 130.708 46.0092C130.708 48.4092 132.628 50.3292 134.74 50.3292ZM153.848 43.2892L153.048 42.3292C152.12 41.2092 150.968 40.0892 150.968 38.1692C150.968 35.6092 153.24 33.3692 155.928 33.3692C158.616 33.3692 160.888 35.6092 160.888 38.1692C160.888 40.2492 159.768 41.4012 158.648 42.3292L157.528 43.2892L161.208 46.9692L163.128 43.9292H166.328L163.128 48.8892L167.768 53.5292H164.088L161.528 50.9692C161.176 51.5132 160.696 51.9612 160.152 52.3452C159.224 53.0172 157.848 53.6892 155.928 53.6892C152.728 53.6892 150.488 51.4172 150.488 48.7292C150.488 47.0652 151.288 45.6892 152.152 44.7612C152.632 44.2172 153.208 43.7052 153.848 43.2892ZM154.808 40.5692L155.768 41.5292L156.888 40.5692C157.208 40.3132 158.168 39.2252 158.168 38.1692C158.168 37.0492 157.208 36.0892 155.928 36.0892C154.648 36.0892 153.688 37.0492 153.688 38.1692C153.688 39.4492 154.648 40.4092 154.808 40.5692ZM159.768 49.2092L155.768 45.2092C155.32 45.4972 154.904 45.8492 154.552 46.2012C153.944 46.8092 153.368 47.7052 153.368 48.7292C153.368 50.0092 154.456 51.1292 156.088 51.1292C157.208 51.1292 158.136 50.6492 158.776 50.1692C159.16 49.8812 159.48 49.5612 159.768 49.2092ZM180.201 53.5292L172.841 33.3692H176.041L181.641 48.8892L187.241 33.3692H190.441L183.081 53.5292H180.201ZM200.342 53.5292L199.702 52.0892C199.414 52.3772 199.094 52.6652 198.71 52.8892C198.038 53.3052 196.982 53.6892 195.542 53.6892C192.342 53.6892 190.582 51.9292 190.582 49.3692C190.582 46.4892 192.502 44.5692 199.542 44.5692V44.0892C199.542 42.6492 198.614 41.6892 196.822 41.6892C194.902 41.6892 194.102 42.4572 193.942 43.4492H191.062C191.222 40.8892 193.27 38.9692 196.822 38.9692C200.182 38.9692 202.422 41.2092 202.422 44.0892V53.5292H200.342ZM199.542 47.8972V47.1292C194.422 47.1292 193.462 48.0892 193.462 49.5292C193.462 50.3292 194.262 51.1292 195.702 51.1292C198.134 51.1292 199.542 49.6892 199.542 47.8972ZM205.757 53.5292V33.3692H208.637V53.5292H205.757ZM212.128 53.5292V39.1292L215.008 39.1292V53.5292H212.128ZM213.568 33.3692C214.56 33.3692 215.328 34.1372 215.328 35.1292C215.328 36.1212 214.56 36.8892 213.568 36.8892C212.576 36.8892 211.808 36.1212 211.808 35.1292C211.808 34.1372 212.576 33.3692 213.568 33.3692ZM229.227 53.5292L228.587 52.0892C228.299 52.3772 227.979 52.6652 227.595 52.8892C226.923 53.3052 225.867 53.6892 224.427 53.6892C220.587 53.6892 217.547 50.6492 217.547 46.3292C217.547 42.0092 220.587 38.9692 224.427 38.9692C225.803 38.9692 226.763 39.3852 227.435 39.7692C227.819 39.9932 228.139 40.2812 228.427 40.5692V33.3692H231.307V53.5292H229.227ZM224.587 50.9692C226.795 50.9692 228.747 49.0492 228.747 46.3292C228.747 43.6092 226.795 41.6892 224.587 41.6892C222.379 41.6892 220.427 43.6092 220.427 46.3292C220.427 49.0492 222.379 50.9692 224.587 50.9692ZM243.936 53.5292L243.296 52.0892C243.008 52.3772 242.688 52.6652 242.304 52.8892C241.632 53.3052 240.576 53.6892 239.136 53.6892C235.936 53.6892 234.176 51.9292 234.176 49.3692C234.176 46.4892 236.096 44.5692 243.136 44.5692V44.0892C243.136 42.6492 242.208 41.6892 240.416 41.6892C238.496 41.6892 237.696 42.4572 237.536 43.4492H234.656C234.816 40.8892 236.864 38.9692 240.416 38.9692C243.776 38.9692 246.016 41.2092 246.016 44.0892V53.5292L243.936 53.5292ZM243.136 47.8972V47.1292C238.016 47.1292 237.056 48.0892 237.056 49.5292C237.056 50.3292 237.856 51.1292 239.296 51.1292C241.728 51.1292 243.136 49.6892 243.136 47.8972ZM250.158 48.7292V41.8492H247.598V39.1292H248.718C249.838 39.1292 250.638 38.3292 250.638 37.2092V35.2892H253.038V39.1292H256.238V41.8492H253.038V48.7292C253.038 50.0092 253.998 50.9692 255.278 50.9692C255.502 50.9692 255.726 50.9372 255.95 50.9052L256.238 50.8092V53.3692C256.11 53.4332 255.95 53.4972 255.79 53.5292C255.47 53.6252 255.086 53.6892 254.638 53.6892C252.078 53.6892 250.158 51.7692 250.158 48.7292ZM259.097 53.5292V39.1292H261.977V53.5292H259.097ZM260.537 33.3692C261.529 33.3692 262.297 34.1372 262.297 35.1292C262.297 36.1212 261.529 36.8892 260.537 36.8892C259.545 36.8892 258.777 36.1212 258.777 35.1292C258.777 34.1372 259.545 33.3692 260.537 33.3692ZM271.396 50.9692C273.476 50.9692 275.396 49.0492 275.396 46.3292C275.396 43.6092 273.476 41.6892 271.396 41.6892C269.316 41.6892 267.396 43.6092 267.396 46.3292C267.396 49.0492 269.316 50.9692 271.396 50.9692ZM271.396 53.6892C267.556 53.6892 264.516 50.6492 264.516 46.3292C264.516 42.0092 267.556 38.9692 271.396 38.9692C275.236 38.9692 278.276 42.0092 278.276 46.3292C278.276 50.6492 275.236 53.6892 271.396 53.6892ZM280.816 53.5292V39.1292H282.896L283.536 40.5692C283.824 40.2812 284.144 39.9932 284.528 39.7692C285.2 39.3852 286.256 38.9692 287.696 38.9692C290.896 38.9692 293.456 41.5292 293.456 45.2092V53.5292H290.576V45.2092C290.576 43.3212 289.008 41.6892 287.216 41.6892C285.264 41.6892 283.696 43.3212 283.696 45.2092V53.5292H280.816Z" fill="#1B2533"/>
</svg>
