<svg width="344" height="93" viewBox="0 0 344 93" fill="none" xmlns="http://www.w3.org/2000/svg">
<rect x="2" y="2" width="339.626" height="89" rx="44.5" fill="#B9E2FF"/>
<rect x="2" y="2" width="339.626" height="89" rx="44.5" stroke="#E5F8F2" stroke-width="4"/>
<path d="M60.3931 52.62H63.4331C66.7611 52.62 69.9931 49.58 69.9931 45.42C69.9931 41.26 66.7611 38.22 63.4331 38.22H60.3931V52.62ZM57.3531 55.5V35.34H63.4331C68.5531 35.34 73.0331 39.82 73.0331 45.42C73.0331 51.02 68.5531 55.5 63.4331 55.5H57.3531ZM84.8406 51.34H87.8806C86.9526 53.74 85.0006 55.66 81.6406 55.66C77.8006 55.66 74.7606 52.62 74.7606 48.3C74.7606 43.98 77.7686 40.94 81.4806 40.94C85.1926 40.94 88.2006 43.98 88.2006 48.3C88.2006 48.652 88.1366 48.972 88.1046 49.196L88.0406 49.58H77.8006C77.9606 51.372 79.5606 52.94 81.6406 52.94C83.4006 52.94 84.3606 51.98 84.8406 51.34ZM77.8006 47.18H85.4806C85.1286 45.1 83.7526 43.66 81.4806 43.66C79.5606 43.66 78.1526 45.1 77.8006 47.18ZM89.9481 50.86H92.8281C92.9881 52.14 93.7561 52.94 95.3881 52.94C97.1801 52.94 97.9481 52.172 97.9481 51.18C97.9481 48.62 90.2681 50.348 90.2681 45.26C90.2681 42.86 92.1881 40.94 95.2281 40.94C98.5881 40.94 100.348 42.7 100.508 45.42H97.6281C97.4681 44.428 96.6681 43.66 95.2281 43.66C93.7881 43.66 92.9881 44.46 92.9881 45.26C92.9881 47.82 100.668 46.092 100.668 51.18C100.668 53.74 98.7481 55.66 95.3881 55.66C91.8361 55.66 90.1081 53.932 89.9481 50.86ZM103.217 55.5V41.1H106.097V55.5H103.217ZM104.657 35.34C105.649 35.34 106.417 36.108 106.417 37.1C106.417 38.092 105.649 38.86 104.657 38.86C103.665 38.86 102.897 38.092 102.897 37.1C102.897 36.108 103.665 35.34 104.657 35.34ZM109.276 56.46H112.156C112.636 57.452 113.596 58.38 115.516 58.38C117.788 58.38 119.196 56.94 119.196 54.86V53.42C118.908 53.708 118.588 53.996 118.204 54.22C117.532 54.636 116.572 55.02 115.196 55.02C111.676 55.02 108.636 51.948 108.636 47.98C108.636 44.012 111.676 40.94 115.196 40.94C116.636 40.94 117.692 41.356 118.364 41.74C118.748 41.964 119.068 42.252 119.356 42.54L119.996 41.1H122.076V54.86C122.076 58.38 119.516 60.94 115.516 60.94C112.028 60.94 109.884 58.86 109.276 56.46ZM115.548 52.3C117.596 52.3 119.516 50.38 119.516 47.98C119.516 45.58 117.596 43.66 115.516 43.66C113.436 43.66 111.516 45.58 111.516 47.98C111.516 50.38 113.436 52.3 115.548 52.3ZM125.404 55.5V41.1H127.484L128.124 42.54C128.412 42.252 128.732 41.964 129.116 41.74C129.788 41.356 130.844 40.94 132.284 40.94C135.484 40.94 138.044 43.5 138.044 47.18V55.5H135.164V47.18C135.164 45.292 133.596 43.66 131.804 43.66C129.852 43.66 128.284 45.292 128.284 47.18V55.5H125.404ZM148.228 55.5V35.34H156.228C159.588 35.34 162.308 38.06 162.308 41.42C162.308 43.756 161.188 45.164 160.068 46.028C159.396 46.54 158.66 46.924 157.828 47.18L162.788 55.5H159.428L154.788 47.5H151.268V55.5H148.228ZM151.268 44.62H156.228C157.828 44.62 159.268 43.18 159.268 41.42C159.268 39.66 157.828 38.22 156.228 38.22H151.268V44.62ZM174.434 51.34H177.474C176.546 53.74 174.594 55.66 171.234 55.66C167.394 55.66 164.354 52.62 164.354 48.3C164.354 43.98 167.362 40.94 171.074 40.94C174.786 40.94 177.794 43.98 177.794 48.3C177.794 48.652 177.73 48.972 177.698 49.196L177.634 49.58H167.394C167.554 51.372 169.154 52.94 171.234 52.94C172.994 52.94 173.954 51.98 174.434 51.34ZM167.394 47.18H175.074C174.722 45.1 173.346 43.66 171.074 43.66C169.154 43.66 167.746 45.1 167.394 47.18ZM180.822 55.5V43.82H179.062V41.1H180.822V40.14C180.822 37.1 182.742 35.18 185.302 35.18C185.782 35.18 186.166 35.244 186.454 35.34L186.902 35.5V38.06L186.614 37.996C186.39 37.964 186.166 37.9 185.942 37.9C184.662 37.9 183.702 38.86 183.702 40.14V41.1H186.902V43.82H183.702V55.5H180.822ZM188.967 55.5V41.1H191.847V55.5H188.967ZM190.407 35.34C191.399 35.34 192.167 36.108 192.167 37.1C192.167 38.092 191.399 38.86 190.407 38.86C189.415 38.86 188.647 38.092 188.647 37.1C188.647 36.108 189.415 35.34 190.407 35.34ZM195.186 55.5V41.1H197.266L197.906 42.54C198.194 42.252 198.514 41.964 198.898 41.74C199.57 41.356 200.626 40.94 202.066 40.94C205.266 40.94 207.826 43.5 207.826 47.18V55.5H204.946V47.18C204.946 45.292 203.378 43.66 201.586 43.66C199.634 43.66 198.066 45.292 198.066 47.18V55.5H195.186ZM220.278 51.34H223.318C222.39 53.74 220.438 55.66 217.078 55.66C213.238 55.66 210.198 52.62 210.198 48.3C210.198 43.98 213.206 40.94 216.918 40.94C220.63 40.94 223.638 43.98 223.638 48.3C223.638 48.652 223.574 48.972 223.542 49.196L223.478 49.58H213.238C213.398 51.372 214.998 52.94 217.078 52.94C218.838 52.94 219.798 51.98 220.278 51.34ZM213.238 47.18H220.918C220.566 45.1 219.19 43.66 216.918 43.66C214.998 43.66 213.59 45.1 213.238 47.18ZM226.186 55.5V41.1H228.266L228.906 42.54C229.162 42.252 229.482 41.964 229.834 41.74C230.442 41.356 231.306 40.94 232.426 40.94C233.802 40.94 234.762 41.516 235.434 42.06C235.818 42.412 236.138 42.764 236.426 43.18C236.714 42.764 237.098 42.412 237.514 42.06C238.25 41.516 239.306 40.94 240.746 40.94C243.434 40.94 245.706 43.148 245.706 46.86V55.5H242.826V46.86C242.826 44.94 241.546 43.66 240.106 43.66C238.666 43.66 237.386 44.94 237.386 46.86V55.5H234.506V46.86C234.506 44.94 233.226 43.66 231.786 43.66C230.346 43.66 229.066 44.94 229.066 46.86V55.5H226.186ZM258.153 51.34H261.193C260.265 53.74 258.313 55.66 254.953 55.66C251.113 55.66 248.073 52.62 248.073 48.3C248.073 43.98 251.081 40.94 254.793 40.94C258.505 40.94 261.513 43.98 261.513 48.3C261.513 48.652 261.449 48.972 261.417 49.196L261.353 49.58H251.113C251.273 51.372 252.873 52.94 254.953 52.94C256.713 52.94 257.673 51.98 258.153 51.34ZM251.113 47.18H258.793C258.441 45.1 257.065 43.66 254.793 43.66C252.873 43.66 251.465 45.1 251.113 47.18ZM264.061 55.5V41.1H266.141L266.781 42.54C267.069 42.252 267.389 41.964 267.773 41.74C268.445 41.356 269.501 40.94 270.941 40.94C274.141 40.94 276.701 43.5 276.701 47.18V55.5H273.821V47.18C273.821 45.292 272.253 43.66 270.461 43.66C268.509 43.66 266.941 45.292 266.941 47.18V55.5H264.061ZM281.153 50.7V43.82H278.593V41.1H279.713C280.833 41.1 281.633 40.3 281.633 39.18V37.26H284.033V41.1H287.233V43.82H284.033V50.7C284.033 51.98 284.993 52.94 286.273 52.94C286.497 52.94 286.721 52.908 286.945 52.876L287.233 52.78V55.34C287.105 55.404 286.945 55.468 286.785 55.5C286.465 55.596 286.081 55.66 285.633 55.66C283.073 55.66 281.153 53.74 281.153 50.7Z" fill="#1B2533"/>
</svg>
