<svg width="323" height="94" viewBox="0 0 323 94" fill="none" xmlns="http://www.w3.org/2000/svg">
<rect x="2.0293" y="2.47012" width="318.23" height="89" rx="44.5" fill="#7EED97"/>
<rect x="2.0293" y="2.47012" width="318.23" height="89" rx="44.5" stroke="#E5F8F2" stroke-width="4"/>
<path d="M74.1539 55.9701V35.8101H77.1939V55.9701H74.1539ZM91.8977 55.9701L91.2577 54.5301C90.9697 54.8181 90.6497 55.1061 90.2657 55.3301C89.5937 55.7461 88.5377 56.1301 87.0977 56.1301C83.2577 56.1301 80.2177 53.0901 80.2177 48.7701C80.2177 44.4501 83.2577 41.4101 87.0977 41.4101C88.4737 41.4101 89.4337 41.8261 90.1057 42.2101C90.4897 42.4341 90.8097 42.7221 91.0977 43.0101V35.8101H93.9777V55.9701H91.8977ZM87.2577 53.4101C89.4657 53.4101 91.4177 51.4901 91.4177 48.7701C91.4177 46.0501 89.4657 44.1301 87.2577 44.1301C85.0497 44.1301 83.0977 46.0501 83.0977 48.7701C83.0977 51.4901 85.0497 53.4101 87.2577 53.4101ZM106.766 51.8101H109.806C108.878 54.2101 106.926 56.1301 103.566 56.1301C99.7264 56.1301 96.6864 53.0901 96.6864 48.7701C96.6864 44.4501 99.6944 41.4101 103.406 41.4101C107.118 41.4101 110.126 44.4501 110.126 48.7701C110.126 49.1221 110.062 49.4421 110.03 49.6661L109.966 50.0501H99.7264C99.8864 51.8421 101.486 53.4101 103.566 53.4101C105.326 53.4101 106.286 52.4501 106.766 51.8101ZM99.7264 47.6501H107.406C107.054 45.5701 105.678 44.1301 103.406 44.1301C101.486 44.1301 100.078 45.5701 99.7264 47.6501ZM121.794 55.9701L121.154 54.5301C120.866 54.8181 120.546 55.1061 120.162 55.3301C119.49 55.7461 118.434 56.1301 116.994 56.1301C113.794 56.1301 112.034 54.3701 112.034 51.8101C112.034 48.9301 113.954 47.0101 120.994 47.0101V46.5301C120.994 45.0901 120.066 44.1301 118.274 44.1301C116.354 44.1301 115.554 44.8981 115.394 45.8901H112.514C112.674 43.3301 114.722 41.4101 118.274 41.4101C121.634 41.4101 123.874 43.6501 123.874 46.5301V55.9701H121.794ZM120.994 50.3381V49.5701C115.874 49.5701 114.914 50.5301 114.914 51.9701C114.914 52.7701 115.714 53.5701 117.154 53.5701C119.586 53.5701 120.994 52.1301 120.994 50.3381ZM128.016 51.1701V44.2901H125.456V41.5701H126.576C127.696 41.5701 128.496 40.7701 128.496 39.6501V37.7301H130.896V41.5701H134.096V44.2901H130.896V51.1701C130.896 52.4501 131.856 53.4101 133.136 53.4101C133.36 53.4101 133.584 53.3781 133.808 53.3461L134.096 53.2501V55.8101C133.968 55.8741 133.808 55.9381 133.648 55.9701C133.328 56.0661 132.944 56.1301 132.496 56.1301C129.936 56.1301 128.016 54.2101 128.016 51.1701ZM136.955 55.9701V41.5701H139.835V55.9701H136.955ZM138.395 35.8101C139.387 35.8101 140.155 36.5781 140.155 37.5701C140.155 38.5621 139.387 39.3301 138.395 39.3301C137.403 39.3301 136.635 38.5621 136.635 37.5701C136.635 36.5781 137.403 35.8101 138.395 35.8101ZM149.254 53.4101C151.334 53.4101 153.254 51.4901 153.254 48.7701C153.254 46.0501 151.334 44.1301 149.254 44.1301C147.174 44.1301 145.254 46.0501 145.254 48.7701C145.254 51.4901 147.174 53.4101 149.254 53.4101ZM149.254 56.1301C145.414 56.1301 142.374 53.0901 142.374 48.7701C142.374 44.4501 145.414 41.4101 149.254 41.4101C153.094 41.4101 156.134 44.4501 156.134 48.7701C156.134 53.0901 153.094 56.1301 149.254 56.1301ZM158.674 55.9701V41.5701H160.754L161.394 43.0101C161.682 42.7221 162.002 42.4341 162.386 42.2101C163.058 41.8261 164.114 41.4101 165.554 41.4101C168.754 41.4101 171.314 43.9701 171.314 47.6501V55.9701H168.434V47.6501C168.434 45.7621 166.866 44.1301 165.074 44.1301C163.122 44.1301 161.554 45.7621 161.554 47.6501V55.9701H158.674ZM180.218 49.8901H183.258C183.258 52.1621 184.538 53.4101 187.098 53.4101C189.818 53.4101 191.098 52.1621 191.098 50.5301C191.098 46.0501 180.378 48.2901 180.378 41.2501C180.378 38.3381 183.098 35.6501 187.098 35.6501C190.938 35.6501 193.658 38.4021 193.658 41.8901H190.618C190.618 39.8101 189.178 38.3701 187.098 38.3701C184.858 38.3701 183.418 39.8101 183.418 41.2501C183.418 45.4101 194.138 43.1701 194.138 50.5301C194.138 53.4421 191.418 56.1301 187.098 56.1301C182.778 56.1301 180.218 53.5701 180.218 49.8901ZM197.798 51.1701V44.2901H195.238V41.5701H196.358C197.478 41.5701 198.278 40.7701 198.278 39.6501V37.7301H200.678V41.5701H203.878V44.2901H200.678V51.1701C200.678 52.4501 201.638 53.4101 202.918 53.4101C203.142 53.4101 203.366 53.3781 203.59 53.3461L203.878 53.2501V55.8101C203.75 55.8741 203.59 55.9381 203.43 55.9701C203.11 56.0661 202.726 56.1301 202.278 56.1301C199.718 56.1301 197.798 54.2101 197.798 51.1701ZM215.544 55.9701L214.904 54.5301C214.616 54.8181 214.296 55.1061 213.912 55.3301C213.24 55.7461 212.184 56.1301 210.744 56.1301C207.544 56.1301 205.784 54.3701 205.784 51.8101C205.784 48.9301 207.704 47.0101 214.744 47.0101V46.5301C214.744 45.0901 213.816 44.1301 212.024 44.1301C210.104 44.1301 209.304 44.8981 209.144 45.8901H206.264C206.424 43.3301 208.472 41.4101 212.024 41.4101C215.384 41.4101 217.624 43.6501 217.624 46.5301V55.9701H215.544ZM214.744 50.3381V49.5701C209.624 49.5701 208.664 50.5301 208.664 51.9701C208.664 52.7701 209.464 53.5701 210.904 53.5701C213.336 53.5701 214.744 52.1301 214.744 50.3381ZM220.639 56.9301H223.519C223.999 57.9221 224.959 58.8501 226.879 58.8501C229.151 58.8501 230.559 57.4101 230.559 55.3301V53.8901C230.271 54.1781 229.951 54.4661 229.567 54.6901C228.895 55.1061 227.935 55.4901 226.559 55.4901C223.039 55.4901 219.999 52.4181 219.999 48.4501C219.999 44.4821 223.039 41.4101 226.559 41.4101C227.999 41.4101 229.055 41.8261 229.727 42.2101C230.111 42.4341 230.431 42.7221 230.719 43.0101L231.359 41.5701H233.439V55.3301C233.439 58.8501 230.879 61.4101 226.879 61.4101C223.391 61.4101 221.247 59.3301 220.639 56.9301ZM226.911 52.7701C228.959 52.7701 230.879 50.8501 230.879 48.4501C230.879 46.0501 228.959 44.1301 226.879 44.1301C224.799 44.1301 222.879 46.0501 222.879 48.4501C222.879 50.8501 224.799 52.7701 226.911 52.7701ZM246.048 51.8101H249.088C248.16 54.2101 246.208 56.1301 242.848 56.1301C239.008 56.1301 235.968 53.0901 235.968 48.7701C235.968 44.4501 238.976 41.4101 242.688 41.4101C246.4 41.4101 249.408 44.4501 249.408 48.7701C249.408 49.1221 249.344 49.4421 249.312 49.6661L249.248 50.0501H239.008C239.168 51.8421 240.768 53.4101 242.848 53.4101C244.608 53.4101 245.568 52.4501 246.048 51.8101ZM239.008 47.6501H246.688C246.336 45.5701 244.96 44.1301 242.688 44.1301C240.768 44.1301 239.36 45.5701 239.008 47.6501Z" fill="#1B2533"/>
</svg>
